<?xml version="1.0" standalone="no"?>
<!DOCTYPE svg PUBLIC "-//W3C//DTD SVG 20010904//EN"
 "http://www.w3.org/TR/2001/REC-SVG-20010904/DTD/svg10.dtd">
<svg version="1.0" xmlns="http://www.w3.org/2000/svg"
 width="64.000000pt" height="64.000000pt" viewBox="0 0 64.000000 64.000000"
 preserveAspectRatio="xMidYMid meet">

<g transform="translate(0.000000,64.000000) scale(0.100000,-0.100000)"
fill="#000000" stroke="none">
<path d="M46 468 c-9 -12 -16 -29 -16 -37 0 -8 59 -74 132 -148 102 -103 138
-133 158 -133 20 0 56 30 158 133 73 74 132 140 132 148 0 27 -31 59 -57 59
-19 0 -52 -26 -129 -102 l-104 -102 -104 102 c-111 110 -140 123 -170 80z
m166 -105 l108 -108 108 108 c111 110 144 128 157 86 6 -18 -15 -43 -121 -150
-71 -71 -136 -129 -144 -129 -8 0 -73 58 -144 129 -106 107 -127 132 -121 150
13 42 46 24 157 -86z"/>
</g>
</svg>
