<?xml version="1.0" standalone="no"?>
<!DOCTYPE svg PUBLIC "-//W3C//DTD SVG 20010904//EN"
 "http://www.w3.org/TR/2001/REC-SVG-20010904/DTD/svg10.dtd">
<svg version="1.0" xmlns="http://www.w3.org/2000/svg"
 width="64.000000pt" height="64.000000pt" viewBox="0 0 64.000000 64.000000"
 preserveAspectRatio="xMidYMid meet">

<g transform="translate(0.000000,64.000000) scale(0.100000,-0.100000)"
fill="#000000" stroke="none">
<path d="M162 357 c-72 -73 -132 -140 -132 -150 0 -36 20 -57 53 -57 27 0 47
15 134 102 l103 103 103 -103 c77 -76 109 -102 128 -102 30 0 59 28 59 56 0
11 -54 73 -133 152 -99 99 -139 132 -157 132 -19 0 -58 -33 -158 -133z m302
-16 c106 -107 127 -132 121 -150 -13 -42 -46 -24 -157 86 l-108 108 -108 -108
c-111 -110 -144 -128 -157 -86 -6 18 15 43 121 150 71 71 136 129 144 129 8 0
73 -58 144 -129z"/>
</g>
</svg>
