<?xml version="1.0" standalone="no"?>
<!DOCTYPE svg PUBLIC "-//W3C//DTD SVG 20010904//EN"
 "http://www.w3.org/TR/2001/REC-SVG-20010904/DTD/svg10.dtd">
<svg version="1.0" xmlns="http://www.w3.org/2000/svg"
 width="64.000000pt" height="64.000000pt" viewBox="0 0 64.000000 64.000000"
 preserveAspectRatio="xMidYMid meet">

<g transform="translate(0.000000,64.000000) scale(0.100000,-0.100000)"
fill="#FFFFFF" stroke="none">
<path d="M226 604 c-32 -10 -64 -31 -95 -62 -73 -73 -89 -157 -50 -262 11 -30
23 -66 25 -80 3 -14 7 -35 10 -47 3 -16 16 -25 45 -33 36 -10 40 -14 35 -35
-4 -14 0 -29 9 -39 18 -18 111 -31 162 -22 70 13 73 15 73 51 0 29 4 36 28 41
43 11 62 33 62 75 0 21 4 40 9 43 18 11 44 134 37 176 -8 51 -36 108 -68 137
-69 63 -187 87 -282 57z m211 -32 c73 -38 123 -118 123 -197 -1 -16 -10 -55
-21 -85 -11 -30 -24 -73 -27 -94 -7 -40 -16 -49 -64 -66 -23 -8 -28 -15 -28
-44 0 -34 0 -35 -55 -41 -30 -4 -76 -3 -102 1 -45 9 -47 10 -47 44 -1 31 -4
35 -41 45 -38 11 -40 14 -46 56 -3 24 -13 59 -23 78 -24 45 -32 129 -16 175
21 66 82 122 160 147 42 14 142 3 187 -19z"/>
<path d="M243 557 c-18 -7 -38 -18 -45 -26 -11 -12 -9 -13 12 -6 14 4 44 12
68 18 23 7 42 15 42 19 0 11 -40 8 -77 -5z"/>
<path d="M365 550 c3 -5 15 -10 26 -10 11 0 17 5 14 10 -3 6 -15 10 -26 10
-11 0 -17 -4 -14 -10z"/>
<path d="M173 328 c-6 -7 -13 -25 -17 -41 -5 -22 -1 -32 21 -53 38 -35 73 -29
97 17 19 35 19 38 3 63 -14 21 -25 26 -56 26 -21 0 -43 -6 -48 -12z m86 -22
c8 -9 8 -21 2 -39 -12 -31 -26 -40 -51 -32 -49 16 -42 85 8 85 16 0 35 -6 41
-14z"/>
<path d="M365 320 c-30 -33 3 -110 47 -110 39 0 68 30 68 69 0 20 -5 42 -12
49 -19 19 -82 15 -103 -8z m93 -37 c3 -27 -1 -35 -22 -44 -29 -13 -51 -2 -61
32 -10 29 13 51 49 47 27 -3 31 -7 34 -35z"/>
<path d="M300 225 c-6 -8 -13 -29 -13 -47 -2 -31 0 -33 33 -33 33 0 35 2 33
33 -1 31 -17 62 -33 62 -4 0 -13 -7 -20 -15z m34 -31 c10 -26 7 -34 -14 -34
-11 0 -20 4 -20 9 0 17 12 41 20 41 4 0 11 -7 14 -16z"/>
<path d="M230 80 c0 -11 5 -20 10 -20 6 0 10 9 10 20 0 11 -4 20 -10 20 -5 0
-10 -9 -10 -20z"/>
<path d="M280 80 c0 -11 5 -20 10 -20 6 0 10 9 10 20 0 11 -4 20 -10 20 -5 0
-10 -9 -10 -20z"/>
<path d="M340 80 c0 -11 5 -20 10 -20 6 0 10 9 10 20 0 11 -4 20 -10 20 -5 0
-10 -9 -10 -20z"/>
<path d="M390 80 c0 -11 5 -20 10 -20 6 0 10 9 10 20 0 11 -4 20 -10 20 -5 0
-10 -9 -10 -20z"/>
</g>
</svg>
